<mxfile host="65bd71144e">
    <diagram id="AFLVg2SDbdLLuDh5WlbK" name="PÃ¡gina-1">
        <mxGraphModel dx="286" dy="151" grid="1" gridSize="10" guides="1" tooltips="1" connect="1" arrows="1" fold="1" page="1" pageScale="1" pageWidth="827" pageHeight="1169" math="0" shadow="0">
            <root>
                <mxCell id="0"/>
                <mxCell id="1" parent="0"/>
                <mxCell id="40" style="edgeStyle=none;html=1;exitX=1;exitY=1;exitDx=0;exitDy=0;entryX=0;entryY=0;entryDx=0;entryDy=0;strokeColor=#FFFFFF;fontSize=12;fillColor=#FFFFFF;" parent="1" source="2" target="17" edge="1">
                    <mxGeometry relative="1" as="geometry"/>
                </mxCell>
                <mxCell id="2" value="" style="whiteSpace=wrap;html=1;" parent="1" vertex="1">
                    <mxGeometry x="110" y="80" width="170" height="150" as="geometry"/>
                </mxCell>
                <mxCell id="41" style="edgeStyle=none;html=1;exitX=1;exitY=0.25;exitDx=0;exitDy=0;entryX=0;entryY=0.5;entryDx=0;entryDy=0;strokeColor=#FFFFFF;fontSize=12;fillColor=#FFFFFF;" parent="1" source="3" target="8" edge="1">
                    <mxGeometry relative="1" as="geometry"/>
                </mxCell>
                <mxCell id="3" value="" style="whiteSpace=wrap;html=1;" parent="1" vertex="1">
                    <mxGeometry x="110" y="80" width="170" height="30" as="geometry"/>
                </mxCell>
                <mxCell id="4" value="Aerolinea" style="text;strokeColor=none;align=center;fillColor=none;html=1;verticalAlign=middle;whiteSpace=wrap;rounded=0;" parent="1" vertex="1">
                    <mxGeometry x="165" y="80" width="60" height="30" as="geometry"/>
                </mxCell>
                <mxCell id="5" value="String: nombre" style="text;strokeColor=none;align=center;fillColor=none;html=1;verticalAlign=middle;whiteSpace=wrap;rounded=0;" parent="1" vertex="1">
                    <mxGeometry x="70" y="110" width="175" height="30" as="geometry"/>
                </mxCell>
                <mxCell id="42" style="edgeStyle=none;html=1;exitX=0.5;exitY=1;exitDx=0;exitDy=0;entryX=0.5;entryY=0;entryDx=0;entryDy=0;strokeColor=#FFFFFF;fontSize=12;fillColor=#FFFFFF;" parent="1" source="6" target="18" edge="1">
                    <mxGeometry relative="1" as="geometry"/>
                </mxCell>
                <mxCell id="6" value="" style="whiteSpace=wrap;html=1;" parent="1" vertex="1">
                    <mxGeometry x="350" y="80" width="170" height="150" as="geometry"/>
                </mxCell>
                <mxCell id="8" value="" style="whiteSpace=wrap;html=1;" parent="1" vertex="1">
                    <mxGeometry x="350" y="80" width="170" height="30" as="geometry"/>
                </mxCell>
                <mxCell id="9" value="Piloto" style="text;strokeColor=none;align=center;fillColor=none;html=1;verticalAlign=middle;whiteSpace=wrap;rounded=0;" parent="1" vertex="1">
                    <mxGeometry x="405" y="80" width="60" height="30" as="geometry"/>
                </mxCell>
                <mxCell id="10" value="String: nombre&lt;br&gt;String: licencia" style="text;strokeColor=none;align=center;fillColor=none;html=1;verticalAlign=middle;whiteSpace=wrap;rounded=0;" parent="1" vertex="1">
                    <mxGeometry x="345" y="120" width="115" height="30" as="geometry"/>
                </mxCell>
                <mxCell id="11" value="" style="whiteSpace=wrap;html=1;" parent="1" vertex="1">
                    <mxGeometry x="110" y="280" width="170" height="140" as="geometry"/>
                </mxCell>
                <mxCell id="43" style="edgeStyle=none;html=1;exitX=1;exitY=0;exitDx=0;exitDy=0;entryX=0;entryY=1;entryDx=0;entryDy=0;strokeColor=#FFFFFF;fontSize=12;fillColor=#FFFFFF;" parent="1" source="12" target="26" edge="1">
                    <mxGeometry relative="1" as="geometry"/>
                </mxCell>
                <mxCell id="12" value="" style="whiteSpace=wrap;html=1;" parent="1" vertex="1">
                    <mxGeometry x="110" y="280" width="170" height="30" as="geometry"/>
                </mxCell>
                <mxCell id="13" value="Torre" style="text;strokeColor=none;align=center;fillColor=none;html=1;verticalAlign=middle;whiteSpace=wrap;rounded=0;" parent="1" vertex="1">
                    <mxGeometry x="165" y="280" width="60" height="30" as="geometry"/>
                </mxCell>
                <mxCell id="14" value="int: ID&lt;br&gt;String: ubicacion&lt;br&gt;String: correo&lt;br&gt;int: telefono" style="text;strokeColor=none;align=center;fillColor=none;html=1;verticalAlign=middle;whiteSpace=wrap;rounded=0;" parent="1" vertex="1">
                    <mxGeometry x="110" y="340" width="145" height="30" as="geometry"/>
                </mxCell>
                <mxCell id="16" value="" style="whiteSpace=wrap;html=1;" parent="1" vertex="1">
                    <mxGeometry x="355" y="275" width="170" height="215" as="geometry"/>
                </mxCell>
                <mxCell id="44" style="edgeStyle=none;html=1;exitX=1;exitY=0;exitDx=0;exitDy=0;entryX=0.353;entryY=1.02;entryDx=0;entryDy=0;entryPerimeter=0;strokeColor=#FFFFFF;fontSize=12;fillColor=#FFFFFF;" parent="1" source="17" target="26" edge="1">
                    <mxGeometry relative="1" as="geometry"/>
                </mxCell>
                <mxCell id="17" value="" style="whiteSpace=wrap;html=1;" parent="1" vertex="1">
                    <mxGeometry x="355" y="275" width="170" height="30" as="geometry"/>
                </mxCell>
                <mxCell id="18" value="Vuelo" style="text;strokeColor=none;align=center;fillColor=none;html=1;verticalAlign=middle;whiteSpace=wrap;rounded=0;" parent="1" vertex="1">
                    <mxGeometry x="410" y="275" width="60" height="30" as="geometry"/>
                </mxCell>
                <mxCell id="19" value="int: numero&lt;br&gt;String&lt;span style=&quot;font-size: 10px;&quot;&gt;:&lt;/span&gt;&lt;font style=&quot;font-size: 12px;&quot;&gt;categoria&lt;br&gt;String: terminal&lt;br&gt;String: puerta&lt;br&gt;int: fecha&lt;br&gt;int: horaDespegue&lt;br&gt;int:horaAterrizaje&lt;br&gt;String: torreControl&lt;br&gt;int: Numpasajeros&lt;br&gt;boolean: estado&lt;br&gt;&lt;/font&gt;" style="text;strokeColor=none;align=center;fillColor=none;html=1;verticalAlign=middle;whiteSpace=wrap;rounded=0;" parent="1" vertex="1">
                    <mxGeometry x="382.5" y="380" width="115" height="30" as="geometry"/>
                </mxCell>
                <mxCell id="22" value="" style="whiteSpace=wrap;html=1;" parent="1" vertex="1">
                    <mxGeometry x="595" y="270" width="170" height="150" as="geometry"/>
                </mxCell>
                <mxCell id="23" value="" style="whiteSpace=wrap;html=1;" parent="1" vertex="1">
                    <mxGeometry x="595" y="270" width="170" height="30" as="geometry"/>
                </mxCell>
                <mxCell id="24" value="Estado" style="text;strokeColor=none;align=center;fillColor=none;html=1;verticalAlign=middle;whiteSpace=wrap;rounded=0;" parent="1" vertex="1">
                    <mxGeometry x="650" y="270" width="60" height="30" as="geometry"/>
                </mxCell>
                <mxCell id="25" value="boolean: situacion" style="text;strokeColor=none;align=center;fillColor=none;html=1;verticalAlign=middle;whiteSpace=wrap;rounded=0;" parent="1" vertex="1">
                    <mxGeometry x="595" y="310" width="115" height="30" as="geometry"/>
                </mxCell>
                <mxCell id="26" value="" style="whiteSpace=wrap;html=1;" parent="1" vertex="1">
                    <mxGeometry x="565" y="80" width="170" height="150" as="geometry"/>
                </mxCell>
                <mxCell id="27" value="" style="whiteSpace=wrap;html=1;" parent="1" vertex="1">
                    <mxGeometry x="565" y="80" width="170" height="30" as="geometry"/>
                </mxCell>
                <mxCell id="28" value="Ruta" style="text;strokeColor=none;align=center;fillColor=none;html=1;verticalAlign=middle;whiteSpace=wrap;rounded=0;" parent="1" vertex="1">
                    <mxGeometry x="620" y="80" width="60" height="30" as="geometry"/>
                </mxCell>
                <mxCell id="29" value="String: origen&lt;br&gt;String: destino&lt;br&gt;int: distancia" style="text;strokeColor=none;align=center;fillColor=none;html=1;verticalAlign=middle;whiteSpace=wrap;rounded=0;" parent="1" vertex="1">
                    <mxGeometry x="575" y="130" width="135" height="30" as="geometry"/>
                </mxCell>
                <mxCell id="54" value="" style="shape=stencil(lVbLctswDPwaXXdIgs9zkv5HZuLUmjh2xnFff1+oGrmBGG/sG00DArBYLDjI3fv28W0zBPd+Oh5eNr/Gp9N2kPshhHG/3RzHk54GeRjk7vlw3Hw/Hn7sn+bfb4+T5XR6PfycvvB79vMBNU5ewf2ZbyKS/Lv4Ntvvxv0He3FoaWXv3GX7lBDE2HuEdtm+JlRn7B39fnMQm39ADsQ+Inqbj0NgAQpSsQE8WiQODclWIBmZQOrducTFIwUUT0M4W0SuSMxBM7Ao1QApxEHgbdvamSif962iWl40vSFV14iQrUOjRZeGGqxDglTikOGsQ80Q0uoia67qTWQpeRRbQ6pwLKXOISqZbkop5IWPVxbtBZkM3ASrjRDpAPV9c3yglQbW3sPfxLwCn2+hti/LzZXDI36Z2GvnMxYIn8+VBGSBEJB6kSlKJIaSypiNULWPLKVOJzUmS0mFuLSVUHIp7qX7K49+OahoMA3ot4+2n0Xo15uKRmTAoqzsI3y6bJ/X06NAB0LXbnp0nhxha1iW05kYicqqQ7EA5QxPxrlfPYoPUbB+FPS9QL+/ykcEleDf1auIMbno8PQJjeDf92tp+CU62PTTsuaupBt/TX1tr4f/T7fncbebX34f/18/9fRqfibKw18=);lineShape=1;fontSize=12;fillColor=#FFFFFF;" parent="1" vertex="1">
                    <mxGeometry x="524.7159620302966" y="288.4738608742549" width="5.456963218096955" height="1.5522782514902171" as="geometry"/>
                </mxCell>
                <mxCell id="64" value="" style="shape=stencil(lVbRUhsxDPyae92xJVu2nyn8BzOE5qYhYUJo4e/RcZMWnYnSe3MuWltardYe+OZle/+8GSi8nI6HX5s/48NpO/CPgWjcbzfH8aSrgW8Hvnk8HDc/j4fX/cP8+/l+ipxWT4ff0w5vMy42hDShKLzPXwghfH64m+N34/5LfA0I2cQHP16QeLG/0OX4Rog2nxhAzgFNkJs9IKIlB9DAwQBYIHwZEMPfEs+ITCjROaJCogFIRfYAGVQNoBK4OIAAtm1Q4qpTdU1gy6smWZ2qS0G1vCpxXtElQsQCMrheBoiALUsqFnZaLYRk+1AYyUlJlCUrvlwRvJQ6QFIxrUqJVI9O4/qiI0PaGlqTO0B933R+nP0nYVglRcRVyiuIskbasUC8+eyGhyOy04Nv5jOVM8v/aQHCYIekyWRsEUWF5LHU2VhtqE5Kk0+SnZ7ipjQZ8dIor1hxZ93XEP3loM1xAQlpYUty7uaF3iHagVPmPKfU8bE01Yzm2BiD7PTofJDTOBX/wrkLgjNu/dWQURyH6aWaQB5By3yY0Jz8u3r1vi0OPx2f2kJP2H3DCpIj014R/qStfY9cj9fFv8fP47jbzW+nr/8vH0v6aX5o8e0H);lineShape=1;fontSize=12;fillColor=#FFFFFF;" parent="1" vertex="1">
                    <mxGeometry x="571.5250508683558" y="288.46916325121555" width="3.474490671111236" height="1.388340164235539" as="geometry"/>
                </mxCell>
                <mxCell id="70" value="" style="shape=stencil(rVfZbtswEPwavS54c/mcpv8RIE4t1LUDx73+vuMKUk0ynkhA33TsSrszswcH//C2f3rdDc68Xc6nr7uf4/NlP/hPg3Pjcb87jxdcDf5x8A8vp/Puy/n0/fg83b8+XS2vV99OP65f+DX5RfHp6uTM7+mBdZLs3yefJ/vDeLyxt1aC1g5WSiYORYKrHYwYf98BIWmoHFR8uG/v8f86oiSqxF7F5Mo+SnL37UMQGyv7IJHYRyPOV/ZeIgEoJvG2sneSSb7JiS+NPcMzqYQ6X1BIGM5Ir87XiJL41UjyjX0w9+0L0iuNvWH2Uaxp8mV8lSy2kTQYYT9QyTVAQKgQBkqRXCPk04zB+zVglhQXzQEFQgJ+EWsH0BiZg4qrUVXohNBW0vy92QHEKMs6zGW4OKgoyRrfM80fCk1a8bpmDtx7Usqa5wCWpFFMhGq8DnVI2dNiUPSGplmgfbCQOocAMW0KCf2L9Ys+aesllS2wBl5AHW9m1tZdYdTlYMVuUt5SsSulbbMkXp9N8WBGRMLBO/UZ8tyVV7aA5Oe2vLLJ5GUOrWxj4FFZSFFMDRM+QUPqGvENDv/Jox8OQC4Rh376wMFuGm+AOpK0+/kJnNgG0w9oODgi2H4DgOQDyaFfMUBm2LTDXIuQOXRLUvFiSRPot7BiJZGk+z0PeqWLYbdJqtJFpltVles7tBhpojWN8VeToICIrcKS6/gzdETiMVJqgLIVR9qYaWWHFsNk1+8Yga4Mfc+D6Gj8TTzYetii2uWLRT4zBbV4umUQrePLYvHfoocP5ubWo9HH9rj4dw57GQ+H6Rh3+749t+HRdObzj38A);lineShape=1;fontSize=12;fillColor=#FFFFFF;" parent="1" vertex="1">
                    <mxGeometry x="589.1607797955332" y="288.23650583337" width="5.099988626200987" height="0.7362906588413486" as="geometry"/>
                </mxCell>
                <mxCell id="71" value="" style="shape=stencil(5VjbThtBDP2avFrjuc8zpf+BRChRKUEBevn7erVMiL3Zs5uqlZD6FsKc2D62jz2zCVfP9zdP2413zy+H/dftj93ty/0mfNp4v3u83x52L/JpE6434epuf9h+OexfH2/Hv59uhpPDp2/778Mv/BxxIVF2A8q7X+M3mcL4xefx/MPuUZ+vUZ3nQDkCQKacFMB7ch4ACgVtIThiDGhBAwqlBACVonYpRioohkpNk5S4f3Me0MhXDWjkkEuNstdpyOSxhcYKUELn7SwgColFAaqj2CAg6TzU1nmbAxTNUmNK2ALrGFroNMzlIegYWqIUYLUmnYdWyDMAsKW1VUp5HuCl1IxLjRKwINVfNUvsHDmQai62+hYRgThc4lSl0i6JOvWGXEmrp2D8wXlzvW5WFsaRjrWVR0n7X6V5wHmOVHUdFUkjCEBUtGmJkX6ugCFRoDfCjwAJAeQ4x64PR4mRLAKXmmicrtQsMQBST6rsVGOAT7WS03mrTA71ZyCvNSZXrPWBmraQE9bJaSJ817XziWDbC1l0EliItY+zU60HMaRIzQyHCl2SSmhxYgEU00BitTGEOg+QvLo4YQlYKNkGLXl4my9zAEvrsVjOA5IdocVRA5pUmLLuIIkqgqCHCWssJMiSsF60jElUyELylJsFoGUpynbVrEsVBC0j1CSuRDzgEhXDEndtm+u4ZBbERow6LvS14kT6GMQwuKRpzQHmIU50STrELdCqLUgqkd4PiTOA2vfkudLIxQIKWJaG4pu4hCbKUN5sg0Z6PzSQmShSGsClMy1a+oL2dwDCicmD9DSDGIYZqNW7FLiYiBhHXRoy2R1uoI+4tJrt5yMsrdrCv1la4yVO/W9L6/QCh+9j0/sbvvA5y+fCjVI01ywZ+MrKFKd7EvCfbc0tXLp9V7eVt3pv9+GlZwMKWk8X3iVij27lw0fsk37ly0rqY3jdy02y5SDsoO2IqvZewgfkVLuierjdMdvN6FhNcxcw8/uuq+r587VLx/t5JD7iLrdLzk/WKOyPb3ZfxvGKpJvixHzK0mWKB6dLZgzr87ga/uCZcOG8fHh/k7zbPTyMT5qn/7dvmPLV+P4Zrn8D);lineShape=1;fontSize=12;fillColor=#FFFFFF;" parent="1" vertex="1">
                    <mxGeometry x="592.167422160618" y="286.3157894912703" width="1.8055711033712425" height="4.338588310165012" as="geometry"/>
                </mxCell>
                <mxCell id="72" value="" style="shape=stencil(lVbLctswDPwaXTEkwBfOafofmYlTa+raGcfp4+8LVSPVoOzN5CZRXBHYXQAc5OFt//S6Gzi8Xc6n77tf4/NlP8iXgXk87nfn8WJPgzwO8vByOu++nU/vx+f5/fVp2jk9/Tj9nP7we8ZVoVomFIc/80pT0vhv5esMOIzHa0Cg6AG1Uqn3ASWQVgcoiTTfBySm5AHZgtT7AFYSdYCUSUBIMVDyOUiEIdkJKTpAFGqAJWHKyQMaZQRIFLIDsK0EAFg5WQFKBbBkKVZPq2R4Ajeavl0DFNLKQjl4HZgkAR0aRU9rEiogpMhUNoDAwK2Um98fqBRAEmWvgpSlPm7uN29Lb6QKMg4L46tohSKIP1DzRrWVhESm5CWLmZIgfnpfR0oNCtABlALgJ1ZSn3BbfnDPQtL/HxnCfhc8QRYhrLO46L8CCjWg2FRnvpKZoWRTJfs6M5Y/6BWlM5GxAE4wTnqXNqgCZ4o+pBQpA1tEmwE+aaszAb6LqTdeWq14E6A3IiogokR1kzIDUj+7nzf9N8DmaOFK1+AFGi/bCOl8VCiBmVPzZkg1qEGzz77Z5UgNcKplqa11lIdFltsAXVyzVjPDdhrDpuG1DCetrkPs6j7CCNCoeOcpQ5os666nasZZp36saYVNVWOfg2UVQI8x5boxZQAF1WMkStfFAvarCdUNczuCQaevNuulzxq1sWq81p5XdDGsdg3ssmZSoNzn76ofA+zh/9X4ZTwc5pv19ff+Km1L8zVcHv8C);lineShape=1;fontSize=12;fillColor=#FFFFFF;" parent="1" vertex="1">
                    <mxGeometry x="592.6227141393383" y="287.35884554156746" width="2.045777564287495" height="1.9828813733453383" as="geometry"/>
                </mxCell>
                <mxCell id="74" value="" style="shape=stencil(lVZJchsxDHzNXLsAkOBydpx/uMpyNBVFcsnK9vtAmXBiUiNUcpsFTaKBbpBTeHjbP73uJqG3y/n0efd9fr7sp/BhEpmP+915vtjTFB6n8PByOu8+nU9fj8/L++vTNfL69OX07brCjwVXE3K8ooR+Ll+kgMLvLx8XwGE+vgOUiCwdICrYASijUgcoGZruA2KGcAeoAewBCLHfoWYEuQ8IAi49oCI5HCQgyggoDoAVFMeU/pRhE2B/B84R5HAW5NwXtSDV+/E0Mi6C4KxPCLWLz9qEsl1ShH79VKFOCwqK9vERwVmfE6TvQCJkr0Cm076iWsEeA+uxjoDkyY6h/Q5JIB7AnDWQTu4OKmNVszQhbgNW0ayAguoB5MaciujoKNY2HVahMqLjhCgofUo2crx5Ecw6N14jJyVJTTkNwEQgx2yckQcSpflpG0AtgxWgUI/1qNZKSOzZbZjCNmbVEevKb+2zDRAnXsb8s4nXqdBmvJO/jeCBsGibaNvCC60ea4XaxNmOz+A+I3XtnxilX990WJz4m0OHUJ0G5wDKQ7wnuVxH75N7pln/h/y5HXKb8aYv6uOtwOrE27gdZpHrADu+tOdrnlCnYWba2DeMjZLrsRtRc23z794WQw+MdHGK+t+XnX8A2MPfu9XLfDgsV7P3/8e7mH1a7nHh8Rc=);lineShape=1;fontSize=12;fillColor=#FFFFFF;" parent="1" vertex="1">
                    <mxGeometry x="592.9841214693246" y="288.80933549788364" width="1.0522788839318322" height="1.3919653019415854" as="geometry"/>
                </mxCell>
                <mxCell id="76" value="" style="shape=stencil(lVbRUhsxDPyae92xJVu2nyn8BzOE5qYhYUJo4e/RcZMWnYnSe3MuWltardYe+OZle/+8GSi8nI6HX5s/48NpO/CPgWjcbzfH8aSrgW8Hvnk8HDc/j4fX/cP8+/l+ipxWT4ff0w5vMy42hDShKLzPXwghfH64m+N34/5LfA0I2cQHP16QeLG/0OX4Rog2nxhAzgFNkJs9IKIlB9DAwQBYIHwZEMPfEs+ITCjROaJCogFIRfYAGVQNoBK4OIAAtm1Q4qpTdU1gy6smWZ2qS0G1vCpxXtElQsQCMrheBoiALUsqFnZaLYRk+1AYyUlJlCUrvlwRvJQ6QFIxrUqJVI9O4/qiI0PaGlqTO0B933R+nP0nYVglRcRVyiuIskbasUC8+eyGhyOy04Nv5jOVM8v/aQHCYIekyWRsEUWF5LHU2VhtqE5Kk0+SnZ7ipjQZ8dIor1hxZ93XEP3loM1xAQlpYUty7uaF3iHagVPmPKfU8bE01Yzm2BiD7PTofJDTOBX/wrkLgjNu/dWQURyH6aWaQB5By3yY0Jz8u3r1vi0OPx2f2kJP2H3DCpIj014R/qStfY9cj9fFv8fP47jbzW+nr/8vH0v6aX5o8e0H);lineShape=1;fontSize=12;fillColor=#FFFFFF;" vertex="1" parent="1">
                    <mxGeometry x="561.5250508683558" y="288.63916325121556" width="3.474490671111236" height="1.388340164235539" as="geometry"/>
                </mxCell>
                <mxCell id="77" value="" style="shape=stencil(lVbRUhsxDPyae92xJVu2nyn8BzOE5qYhYUJo4e/RcZMWnYnSe3MuWltardYe+OZle/+8GSi8nI6HX5s/48NpO/CPgWjcbzfH8aSrgW8Hvnk8HDc/j4fX/cP8+/l+ipxWT4ff0w5vMy42hDShKLzPXwghfH64m+N34/5LfA0I2cQHP16QeLG/0OX4Rog2nxhAzgFNkJs9IKIlB9DAwQBYIHwZEMPfEs+ITCjROaJCogFIRfYAGVQNoBK4OIAAtm1Q4qpTdU1gy6smWZ2qS0G1vCpxXtElQsQCMrheBoiALUsqFnZaLYRk+1AYyUlJlCUrvlwRvJQ6QFIxrUqJVI9O4/qiI0PaGlqTO0B933R+nP0nYVglRcRVyiuIskbasUC8+eyGhyOy04Nv5jOVM8v/aQHCYIekyWRsEUWF5LHU2VhtqE5Kk0+SnZ7ipjQZ8dIor1hxZ93XEP3loM1xAQlpYUty7uaF3iHagVPmPKfU8bE01Yzm2BiD7PTofJDTOBX/wrkLgjNu/dWQURyH6aWaQB5By3yY0Jz8u3r1vi0OPx2f2kJP2H3DCpIj014R/qStfY9cj9fFv8fP47jbzW+nr/8vH0v6aX5o8e0H);lineShape=1;fontSize=12;fillColor=#FFFFFF;" vertex="1" parent="1">
                    <mxGeometry x="549.9950508683559" y="288.8091632512155" width="3.474490671111236" height="1.388340164235539" as="geometry"/>
                </mxCell>
                <mxCell id="78" value="" style="shape=stencil(lVbRUhsxDPyae92xJVu2nyn8BzOE5qYhYUJo4e/RcZMWnYnSe3MuWltardYe+OZle/+8GSi8nI6HX5s/48NpO/CPgWjcbzfH8aSrgW8Hvnk8HDc/j4fX/cP8+/l+ipxWT4ff0w5vMy42hDShKLzPXwghfH64m+N34/5LfA0I2cQHP16QeLG/0OX4Rog2nxhAzgFNkJs9IKIlB9DAwQBYIHwZEMPfEs+ITCjROaJCogFIRfYAGVQNoBK4OIAAtm1Q4qpTdU1gy6smWZ2qS0G1vCpxXtElQsQCMrheBoiALUsqFnZaLYRk+1AYyUlJlCUrvlwRvJQ6QFIxrUqJVI9O4/qiI0PaGlqTO0B933R+nP0nYVglRcRVyiuIskbasUC8+eyGhyOy04Nv5jOVM8v/aQHCYIekyWRsEUWF5LHU2VhtqE5Kk0+SnZ7ipjQZ8dIor1hxZ93XEP3loM1xAQlpYUty7uaF3iHagVPmPKfU8bE01Yzm2BiD7PTofJDTOBX/wrkLgjNu/dWQURyH6aWaQB5By3yY0Jz8u3r1vi0OPx2f2kJP2H3DCpIj014R/qStfY9cj9fFv8fP47jbzW+nr/8vH0v6aX5o8e0H);lineShape=1;fontSize=12;fillColor=#FFFFFF;" vertex="1" parent="1">
                    <mxGeometry x="539.9950508683559" y="288.96916325121555" width="3.474490671111236" height="1.388340164235539" as="geometry"/>
                </mxCell>
                <mxCell id="79" value="" style="shape=stencil(lVbRUhsxDPyae92xJVu2nyn8BzOE5qYhYUJo4e/RcZMWnYnSe3MuWltardYe+OZle/+8GSi8nI6HX5s/48NpO/CPgWjcbzfH8aSrgW8Hvnk8HDc/j4fX/cP8+/l+ipxWT4ff0w5vMy42hDShKLzPXwghfH64m+N34/5LfA0I2cQHP16QeLG/0OX4Rog2nxhAzgFNkJs9IKIlB9DAwQBYIHwZEMPfEs+ITCjROaJCogFIRfYAGVQNoBK4OIAAtm1Q4qpTdU1gy6smWZ2qS0G1vCpxXtElQsQCMrheBoiALUsqFnZaLYRk+1AYyUlJlCUrvlwRvJQ6QFIxrUqJVI9O4/qiI0PaGlqTO0B933R+nP0nYVglRcRVyiuIskbasUC8+eyGhyOy04Nv5jOVM8v/aQHCYIekyWRsEUWF5LHU2VhtqE5Kk0+SnZ7ipjQZ8dIor1hxZ93XEP3loM1xAQlpYUty7uaF3iHagVPmPKfU8bE01Yzm2BiD7PTofJDTOBX/wrkLgjNu/dWQURyH6aWaQB5By3yY0Jz8u3r1vi0OPx2f2kJP2H3DCpIj014R/qStfY9cj9fFv8fP47jbzW+nr/8vH0v6aX5o8e0H);lineShape=1;fontSize=12;fillColor=#FFFFFF;" vertex="1" parent="1">
                    <mxGeometry x="581.5250508683558" y="288.23916325121553" width="3.474490671111236" height="1.388340164235539" as="geometry"/>
                </mxCell>
            </root>
        </mxGraphModel>
    </diagram>
</mxfile>